# xmcd
#
# Track frame offsets:
# 150
# 15935
# 31835
# 56170
# 67495
# 85090
# 100090
# 117537
# 142997
# 159415
# 169945
# 183640
# 196620
# 216732
# 230540
# 241560
# 256552
# 276847
#
# Disc length: 3935 seconds
#
#
# Revision: 0
# Processed by: cddbd v1.5.2PL0 Copyright (c) Steve Scherf et al.
# Submitted via: FreeRIP 2.945 
#
DISCID=f60f5d12
DTITLE=Carol Leigh - You've Got To Give Me Some
DYEAR=1996
DGENRE=blues
TTITLE0=YOU'VE GOT TO GIVE ME SOME
TTITLE1=DO YOUR DUTY
TTITLE2=I AIN'T GONNA PLAY NO SECOND FIDDLE
TTITLE3=TRAVELIN' BLUES
TTITLE4=STREET WALKER BLUES
TTITLE5=GULF COAST BLUES
TTITLE6=I'VE GOT WHAT IT TAKES
TTITLE7=HOW LONG BLUES
TTITLE8=KEEP YOUR HANDS OFF OF HIM
TTITLE9=WRINGIN' AND TWISTIN' BLUES
TTITLE10=DO YOUR DUTY (2)
TTITLE11=NOBODY'S FAULT BUT MINE
TTITLE12=BLACK MOUNTAIN BLUES
TTITLE13=LOST YOUR HEAD BLUES
TTITLE14=SEND ME A MAN
TTITLE15=YOU'VE GOT THE RIGHT KEY, BUT THE WRONG KEYHOLE
TTITLE16=BLUES BEFORE SUNRISE
TTITLE17=SEE IF I'LL CARE
EXTD=GHB Records BCD-136
EXTT0=
EXTT1=
EXTT2=
EXTT3=
EXTT4=
EXTT5=
EXTT6=
EXTT7=
EXTT8=
EXTT9=
EXTT10=
EXTT11=
EXTT12=
EXTT13=
EXTT14=
EXTT15=
EXTT16=
EXTT17=
PLAYORDER=
